<?xml version="1.0" encoding="utf-8"?>
<!-- Generator: Adobe Illustrator 23.0.4, SVG Export Plug-In . SVG Version: 6.00 Build 0)  -->
<svg version="1.1" id="Lager_1" xmlns="http://www.w3.org/2000/svg" xmlns:xlink="http://www.w3.org/1999/xlink" x="0px" y="0px"
	 viewBox="0 0 395.98 445.48" style="enable-background:new 0 0 395.98 445.48;" xml:space="preserve">
<style type="text/css">
	.st0{fill:#FFFFFF;}
</style>
<g>
	<path class="st0" d="M126.81,140.43c-0.02,0-0.04,0-0.05,0C126.78,140.47,126.8,140.46,126.81,140.43z"/>
	<path class="st0" d="M375.05,160.72c-4.56-10.75-13.25-9.6-26.05-11.17c-4.49-0.56-47.8-2.93-57.62-4.47
		c-10.33-1.64-16.17-1.78-20.8-10.44c-1.71-3.35-1.46-7.05-0.91-9.5c3.43-15.08,26.97-14.73,48.86-14.7
		c18.68,0.04,36.74,0.38,43.68,9.11c1.79,2.27,3.79,6.35,4.82,9.22c0.11,0.76,1.71,6.42,1.71,10.19h5.61
		c0.57-3.25-0.14-9.28-0.42-11.52c-0.51-4.33-0.84-8.83-1.75-12.53c-1.46-9.25-10.55-10.33-12.41-10.79
		c-8.83-2.2-41.96-3.77-64.77-2.3c-10.03,0.66-24.41,1.26-31.09,8.31c-4.63,4.92-4.93,20.63-4.93,25.56
		c-0.04,7.68,0.18,23.6,6.57,29.54c8.43,7.86,79.11,4.4,91.26,10.79c3.43,1.82,4.34,2.79,6.64,5.59c1.61,1.96,2.74,6.6,2.08,11.14
		c-0.51,3.56-1.57,7.05-3.79,9.25c-8.83,8.69-31.64,8.03-41.41,7.93c-27.15,0-43.02-1.26-49.81-13.65
		c-1.63-3.06-3.92-9.71-4.08-14.05h-6.35c0,4.99,0.26,11.93,0.73,16.42c0.22,2.3-0.15,10.44,6.82,14.84
		c7.63,4.82,28.28,5.34,52.65,5.24c8.83-0.07,41.96-1.05,49.11-7.4c5.91-5.24,6.75-18.5,6.97-25.17
		C376.55,179.47,376.58,164.39,375.05,160.72z"/>
	<path class="st0" d="M128.5,182.41c-1.26,9.93-4,16.04-9.88,21.38c-4.35,3.96-14.94,5.66-30.18,5.94
		c-14.71,0.28-36.23,0.02-39.97-10.52c-2.44-6.89-3.7-20.56-3.89-34.87h30.77c6.54,0,11.7,5.47,11.34,11.96
		c-0.2,3.65-0.87,11.17-0.89,11.28h6.52c1.8-18.07,1.8-36.15,0-54.22h-6.52c0.01,0.11,0.68,7.64,0.89,11.28
		c0.36,6.48-4.79,11.96-11.34,11.96H44.58c0.25-19.25,2.39-37.67,6.13-40.48c8.28-6.22,40.51-6.78,57.02-2.64
		c10.83,2.71,15.32,8.82,18.19,18.6c0.59,1.99,0.96,6.18,0.92,7.34h6.07c-0.22-5.18-0.49-9.47-0.81-13.03
		c-1.59-17.49-4.76-16.94-8.76-19.44c-9.55-5.9-84-9.82-98.21,1.74c-10.68,8.69-8.85,98.02-1.17,103.44
		c9.6,6.77,49.93,6.55,54.36,6.59c8.46,0.1,38.25-1.01,47.59-5.59c8.02-3.92,8.24-14.09,8.71-19.89c0.49-6.07,0.2-9.09,0.34-10.83
		C132.8,182.41,130.66,182.41,128.5,182.41z"/>
	<path class="st0" d="M247.6,109.22c0.22,9.55,0.28,18.25-0.16,28.74c-0.43,10.09-8.21,18.27-18.31,18.27h-59.77
		c-0.83-49.6-0.08-81.41,1.99-102.41c0.67-6.81,1.4-13.36,5.9-19.08c10.48-13.28,51.77-8.57,57.96-4.25
		c3.38,2.34,6.3,5.69,8.89,23.33c1.94,13.05,2.3,18.28,3.05,31.96h6.2c-0.02-12.66-3.72-55.09-9.72-62.27
		c-8.5-10.12-36.33-9.86-46.8-9.72c-11.79,0.22-39.89,2.44-49.64,12.13c-13.22,13.14-9.05,158.76-5.44,214.57
		c6.52,99.97,18.16,169.42,21.48,179.86c2.12,6.66,11.79,15.95,58.45,8.86c0.29-3.06,0.54-4.1,1.01-7.17
		c-2.41,0.86-6.19,1.19-9.61,0.65c-11.41-1.84-21.64-11.94-23.71-22.75c-12.37-64.8-18.81-186.9-19.87-235.91h52.98
		c13.63,0,24.55,11.3,24.07,24.92c-1.84,52.8-6.54,106.37-13.75,160.22h7c10.87-81.16,16.07-161.72,14.3-239.94H247.6z"/>
</g>
</svg>
